# xmcd CD database file
#
# Track frame offsets:
#	150
#	18305
#	36202
#	55555
#	71532
#	95572
#	110052
#	126252
#	150150
#	168312
#	188010
#
# Disc length: 2785 seconds
#
# Revision: 1
# Processed by: cddbd v1.5.2PL0 Copyright (c) Steve Scherf et al.
# Submitted via: CDex 1.51
#
DISCID=850adf0b
DTITLE=CHROMING ROSE - PRESSURE
DYEAR=1992
DGENRE=Heavy Metal
TTITLE0=Under Pressure
TTITLE1=Never Ending Nights
TTITLE2=Metamorphic Dreamer
TTITLE3=Skyline Of The World
TTITLE4=They Will Always Find A Reason
TTITLE5=The Snake
TTITLE6=They Want More
TTITLE7=You Can't Lie Anymore
TTITLE8=Price Of My Life
TTITLE9=Temple Of Shelter
TTITLE10=Fire In Your Eyes *
EXTD=YEAR: 1992
EXTT0=
EXTT1=
EXTT2=
EXTT3=
EXTT4=
EXTT5=
EXTT6=
EXTT7=
EXTT8=
EXTT9=
EXTT10=
PLAYORDER=
